<?xml version="1.0" encoding="utf-8"?>
<!-- Generator: Adobe Illustrator 17.0.0, SVG Export Plug-In . SVG Version: 6.00 Build 0)  -->
<!DOCTYPE svg PUBLIC "-//W3C//DTD SVG 1.1//EN" "http://www.w3.org/Graphics/SVG/1.1/DTD/svg11.dtd">
<svg version="1.1" id="Twitter" xmlns="http://www.w3.org/2000/svg" xmlns:xlink="http://www.w3.org/1999/xlink" x="0px" y="0px"
	 width="30px" height="30px" viewBox="0 -10 30 30" enable-background="new 0 -10 30 30" xml:space="preserve">
<path id="facebook-facebook" d="M27.614-9.178H2.388c-0.865,0-1.564,0.701-1.564,1.564v25.226c0,0.865,0.701,1.564,1.564,1.564
	h13.58V8.195h-3.694V3.916h3.694V0.761c0-3.663,2.237-5.656,5.504-5.656c1.564,0,2.91,0.116,3.301,0.168v3.828l-2.265,0.002
	c-1.776,0-2.121,0.844-2.121,2.083v2.732h4.237l-0.552,4.279h-3.685v10.981h7.225c0.865,0,1.564-0.701,1.564-1.564V-7.614
	C29.178-8.478,28.478-9.178,27.614-9.178z"/>
</svg>
