<?xml version="1.0" encoding="utf-8"?>
<!-- Generator: Adobe Illustrator 17.0.0, SVG Export Plug-In . SVG Version: 6.00 Build 0)  -->
<!DOCTYPE svg PUBLIC "-//W3C//DTD SVG 1.1//EN" "http://www.w3.org/Graphics/SVG/1.1/DTD/svg11.dtd">
<svg version="1.1" id="Twitter" xmlns="http://www.w3.org/2000/svg" xmlns:xlink="http://www.w3.org/1999/xlink" x="0px" y="0px"
	 width="30px" height="30px" viewBox="0 -10 30 30" enable-background="new 0 -10 30 30" xml:space="preserve">
<path id="instagram-instagram" d="M25.906,2.819h-2.468c0.181,0.698,0.288,1.427,0.288,2.182c0,4.82-3.907,8.725-8.725,8.725
	S6.277,9.821,6.277,5.001c0-0.755,0.107-1.484,0.286-2.182H4.095v11.998c0,0.602,0.489,1.089,1.091,1.089h19.629
	c0.604,0,1.091-0.489,1.091-1.089V2.819z M25.906-4.815c0-0.602-0.489-1.091-1.091-1.091h-3.272c-0.602,0-1.091,0.489-1.091,1.091
	v3.272c0,0.602,0.489,1.091,1.091,1.091h3.272c0.604,0,1.091-0.489,1.091-1.091V-4.815z M15.001-0.453
	c-3.012,0-5.454,2.441-5.454,5.452c0,3.012,2.441,5.454,5.454,5.454s5.454-2.443,5.454-5.454S18.013-0.453,15.001-0.453
	 M25.906,19.178H4.094c-1.806,0-3.272-1.465-3.272-3.273V-5.906c0-1.806,1.465-3.272,3.272-3.272h21.813
	c1.808,0,3.272,1.465,3.272,3.272v21.811C29.178,17.713,27.714,19.178,25.906,19.178"/>
</svg>
