<?xml version="1.0" encoding="utf-8"?>
<!-- Generator: Adobe Illustrator 17.0.0, SVG Export Plug-In . SVG Version: 6.00 Build 0)  -->
<!DOCTYPE svg PUBLIC "-//W3C//DTD SVG 1.1//EN" "http://www.w3.org/Graphics/SVG/1.1/DTD/svg11.dtd">
<svg version="1.1" id="Twitter" xmlns="http://www.w3.org/2000/svg" xmlns:xlink="http://www.w3.org/1999/xlink" x="0px" y="0px"
	 width="30px" height="30px" viewBox="0 -10 30 30" enable-background="new 0 -10 30 30" xml:space="preserve">
<path id="twitter-twitter" d="M29.178-3.795c-1.042,0.462-2.165,0.775-3.341,0.917c1.201-0.72,2.124-1.86,2.558-3.218
	c-1.124,0.667-2.369,1.151-3.694,1.412c-1.061-1.13-2.574-1.836-4.246-1.836c-3.213,0-5.818,2.605-5.818,5.817
	c0,0.456,0.052,0.901,0.151,1.325C9.953,0.377,5.666-1.938,2.797-5.458C2.295-4.598,2.009-3.6,2.009-2.534
	c0,2.019,1.027,3.798,2.588,4.842c-0.953-0.028-1.85-0.291-2.635-0.726c0,0.024,0,0.049,0,0.074c0,2.819,2.006,5.169,4.666,5.704
	C6.139,7.493,5.625,7.563,5.095,7.563c-0.374,0-0.739-0.036-1.094-0.104c0.74,2.311,2.89,3.993,5.435,4.04
	c-1.99,1.56-4.499,2.49-7.225,2.49c-0.47,0-0.932-0.027-1.388-0.082c2.575,1.651,5.633,2.613,8.917,2.613
	c10.7,0,16.553-8.865,16.553-16.553c0-0.252-0.006-0.503-0.017-0.753C27.412-1.604,28.398-2.629,29.178-3.795z"/>
</svg>
