<?xml version="1.0" encoding="utf-8"?>
<!-- Generator: Adobe Illustrator 17.0.0, SVG Export Plug-In . SVG Version: 6.00 Build 0)  -->
<!DOCTYPE svg PUBLIC "-//W3C//DTD SVG 1.1//EN" "http://www.w3.org/Graphics/SVG/1.1/DTD/svg11.dtd">
<svg version="1.1" id="Twitter" xmlns="http://www.w3.org/2000/svg" xmlns:xlink="http://www.w3.org/1999/xlink" x="0px" y="0px"
	 width="30px" height="30px" viewBox="0 0 30 30" enable-background="new 0 0 30 30" xml:space="preserve">
<path d="M25.907,0.822H4.094c-1.807,0-3.272,1.466-3.272,3.272v21.811c0,1.808,1.466,3.273,3.272,3.273h21.812
	c1.808,0,3.272-1.465,3.273-3.273V4.094C29.178,2.287,27.715,0.822,25.907,0.822z M23.311,10.738
	c0.008,0.184,0.013,0.369,0.013,0.555c0,5.666-4.313,12.2-12.2,12.2c-2.422,0-4.675-0.71-6.573-1.926
	c0.335,0.04,0.677,0.06,1.023,0.06c2.009,0,3.858-0.685,5.325-1.836c-1.876-0.035-3.46-1.274-4.006-2.978
	c0.262,0.05,0.531,0.077,0.807,0.077c0.391,0,0.77-0.052,1.13-0.15c-1.962-0.394-3.44-2.127-3.44-4.205c0-0.018,0-0.036,0-0.054
	c0.578,0.321,1.239,0.514,1.942,0.536c-1.151-0.769-1.908-2.081-1.908-3.569c0-0.786,0.211-1.523,0.581-2.156
	c2.115,2.594,5.274,4.301,8.838,4.48c-0.073-0.314-0.111-0.641-0.111-0.977c0-2.368,1.92-4.288,4.288-4.288
	c1.233,0,2.348,0.521,3.13,1.354c0.977-0.192,1.894-0.549,2.723-1.04c-0.32,1.001-1,1.841-1.885,2.372
	c0.868-0.104,1.694-0.334,2.463-0.675C24.876,9.378,24.148,10.133,23.311,10.738z"/>
</svg>
